# xmcd
#
# Track frame offsets: 
#        150
#        24417
#        52814
#        77031
#        105233
#        129980
#        151004
#        170593
#        190084
#        214818
#        232808
#        252522
#        276831
#        278275
#        307480
#
# Disc length: 4376 seconds
#
# Revision: 0
# Processed by: cddbd v1.4PL0 Copyright (c) Steve Scherf et al.
# Submitted via: ExactAudioCopy v0.90b4
#
DISCID=bc11160f
DTITLE=”Ó∂‡ÃÔπ‚ - ADDICTED TO YOU
DYEAR=2001
DGENRE=R&B
TTITLE0=ADDICTED TO YOU (UP-IN-HEAVEN MIX)
TTITLE1=ADDICTED TO YOU (UNDER WATER MIX)
TTITLE2=ADDICTED TO YOU (UP-IN-HEAVEN MIX) [Instrumental]
TTITLE3=ADDICTED TO YOU (UNDER WATER MIX) [Instrumental]
TTITLE4=Automatic (Alum Edit)
TTITLE5=Movin on Without You
TTITLE6=In My Room
TTITLE7=First Love
TTITLE8=Time Will Tell
TTITLE9=Never Let Go
TTITLE10=B and C
TTITLE11=Another Chance
TTITLE12=Interlude
TTITLE13=Give me a Reason
TTITLE14=Automatic Johnny Vicions Remix
EXTD=
EXTT0=
EXTT1=
EXTT2=
EXTT3=
EXTT4=
EXTT5=
EXTT6=
EXTT7=
EXTT8=
EXTT9=
EXTT10=
EXTT11=
EXTT12=
EXTT13=
EXTT14=
PLAYORDER=
